<svg width="32" height="32" viewBox="0 0 32 32" fill="none" xmlns="http://www.w3.org/2000/svg">
<g id="Vector">
<path d="M22.5741 10.1591H20.9253C20.5667 10.1591 20.2257 10.3313 20.0147 10.6266L14.4882 18.2907L11.9851 14.8173C11.7741 14.5255 11.4366 14.3497 11.0745 14.3497H9.42568C9.19716 14.3497 9.06357 14.6098 9.19716 14.7962L13.5776 20.8712C13.6811 21.0156 13.8175 21.1333 13.9756 21.2145C14.1336 21.2957 14.3087 21.338 14.4864 21.338C14.6641 21.338 14.8392 21.2957 14.9973 21.2145C15.1553 21.1333 15.2917 21.0156 15.3952 20.8712L22.7991 10.6055C22.9362 10.4192 22.8026 10.1591 22.5741 10.1591Z" fill="#128C16"/>
<path d="M16 0C7.30234 0 0.25 7.05234 0.25 15.75C0.25 24.4477 7.30234 31.5 16 31.5C24.6977 31.5 31.75 24.4477 31.75 15.75C31.75 7.05234 24.6977 0 16 0ZM16 28.8281C8.77891 28.8281 2.92188 22.9711 2.92188 15.75C2.92188 8.52891 8.77891 2.67188 16 2.67188C23.2211 2.67188 29.0781 8.52891 29.0781 15.75C29.0781 22.9711 23.2211 28.8281 16 28.8281Z" fill="#128C16"/>
</g>
</svg>
