<svg width="219" height="164" viewBox="0 0 219 164" fill="none" xmlns="http://www.w3.org/2000/svg">
<rect y="0.876892" width="218.629" height="162.592" rx="10" fill="white"/>
<path d="M55.4286 40.8769C46.9067 40.8769 40 47.7836 40 56.3055V70.7698C40 71.3041 40.4299 71.734 40.9643 71.734H48.3571C49.7754 71.734 50.9286 70.5809 50.9286 69.1626V60.8055C50.9286 59.3872 49.7754 58.234 48.3571 58.234H42.8929V56.3055C42.8929 49.3827 48.5058 43.7697 55.4286 43.7697C62.3513 43.7697 67.9643 49.3827 67.9643 56.3055V58.234H62.5C61.0817 58.234 59.9286 59.3872 59.9286 60.8055V69.1626C59.9286 70.5809 61.0817 71.734 62.5 71.734H69.8929C70.4272 71.734 70.8572 71.3041 70.8572 70.7698V56.3055C70.8572 47.7836 63.9505 40.8769 55.4286 40.8769ZM48.0357 61.1269V68.8412H42.8929V61.1269H48.0357ZM67.9643 68.8412H62.8214V61.1269H67.9643V68.8412Z" fill="#BE272D"/>
<path d="M120.89 41.0517H112.742C112.054 41.0517 111.442 41.522 111.28 42.2096C110.786 44.2961 108.917 45.7938 106.743 45.7938C104.57 45.7938 102.701 44.2961 102.207 42.2096C102.13 41.8798 101.943 41.5858 101.678 41.3755C101.412 41.1653 101.083 41.0511 100.744 41.0517H92.5959C92.1348 41.0517 91.6925 41.2349 91.3665 41.561C91.0404 41.8871 90.8572 42.3293 90.8572 42.7905V52.7489C90.8572 53.21 91.0404 53.6523 91.3665 53.9784C91.6925 54.3045 92.1348 54.4877 92.5959 54.4877H95.5598V69.8205C95.5598 70.2816 95.743 70.7239 96.069 71.05C96.3951 71.376 96.8374 71.5592 97.2985 71.5592H116.188C116.649 71.5592 117.091 71.376 117.417 71.05C117.743 70.7239 117.927 70.2816 117.927 69.8205V54.4877H120.89C121.352 54.4877 121.794 54.3045 122.12 53.9784C122.446 53.6523 122.629 53.21 122.629 52.7489V42.7905C122.629 42.3293 122.446 41.8871 122.12 41.561C121.794 41.2349 121.352 41.0517 120.89 41.0517ZM119.784 51.6424H115.081V68.714H98.405V51.6424H93.7024V43.897H99.7605C100.875 46.7106 103.613 48.6391 106.743 48.6391C109.873 48.6391 112.612 46.7106 113.726 43.897H119.784V51.6424Z" fill="#BE272D"/>
<path d="M176.701 47.88L171.558 50.8412V44.734C171.558 43.3157 170.405 42.1626 168.986 42.1626H145.201C143.782 42.1626 142.629 43.3157 142.629 44.734V67.8769C142.629 69.2952 143.782 70.4483 145.201 70.4483H168.986C170.405 70.4483 171.558 69.2952 171.558 67.8769V61.7697L176.701 64.7309C177.557 65.2251 178.629 64.6063 178.629 63.622V48.993C178.629 48.0046 177.557 47.3858 176.701 47.88ZM168.665 67.5555H145.522V45.0555H168.665V67.5555ZM175.736 60.8456L171.558 58.443V54.172L175.736 51.7653V60.8456ZM148.415 50.1983H152.915C153.092 50.1983 153.236 50.0537 153.236 49.8769V47.9483C153.236 47.7715 153.092 47.6269 152.915 47.6269H148.415C148.238 47.6269 148.094 47.7715 148.094 47.9483V49.8769C148.094 50.0537 148.238 50.1983 148.415 50.1983Z" fill="#BE272D"/>
<path d="M57.5479 101.808C53.9571 101.808 51.0487 104.716 51.0487 108.307C51.0487 111.898 53.9571 114.806 57.5479 114.806C61.1388 114.806 64.0472 111.898 64.0472 108.307C64.0472 104.716 61.1388 101.808 57.5479 101.808ZM57.5479 112.207C55.3951 112.207 53.6484 110.46 53.6484 108.307C53.6484 106.154 55.3951 104.408 57.5479 104.408C59.7008 104.408 61.4475 106.154 61.4475 108.307C61.4475 110.46 59.7008 112.207 57.5479 112.207Z" fill="#BE272D"/>
<path d="M71.8463 96.2835H66.3219L65.0058 92.5952C64.9149 92.3428 64.7483 92.1247 64.5287 91.9705C64.3091 91.8164 64.0473 91.7338 63.7791 91.734H51.3168C50.7684 91.734 50.2769 92.0793 50.0941 92.5952L48.774 96.2835H43.2496C41.4542 96.2835 40 97.7377 40 99.5331V118.056C40 119.851 41.4542 121.306 43.2496 121.306H71.8463C73.6417 121.306 75.0959 119.851 75.0959 118.056V99.5331C75.0959 97.7377 73.6417 96.2835 71.8463 96.2835ZM72.1712 118.056C72.1712 118.235 72.025 118.381 71.8463 118.381H43.2496C43.0709 118.381 42.9247 118.235 42.9247 118.056V99.5331C42.9247 99.3544 43.0709 99.2082 43.2496 99.2082H50.8334L52.4582 94.6587H62.6336L64.2584 99.2082H71.8463C72.025 99.2082 72.1712 99.3544 72.1712 99.5331V118.056Z" fill="#BE272D"/>
<path d="M120.66 95.2601H118.603V92.6156C118.603 92.1271 118.21 91.734 117.722 91.734H95.9775C95.489 91.734 95.0959 92.1271 95.0959 92.6156V102.606C95.0959 103.095 95.489 103.488 95.9775 103.488H117.722C118.21 103.488 118.603 103.095 118.603 102.606V97.6109H119.779V104.957H106.886C106.075 104.957 105.417 105.614 105.417 106.426V111.421H103.801C103.639 111.421 103.507 111.554 103.507 111.715V120.09C103.507 120.112 103.511 120.137 103.514 120.159C103.484 120.582 103.54 121.007 103.681 121.407C103.822 121.808 104.043 122.174 104.332 122.485C104.621 122.795 104.971 123.043 105.36 123.212C105.749 123.382 106.168 123.469 106.592 123.469C108.297 123.469 109.678 122.088 109.678 120.384C109.678 120.306 109.674 120.233 109.67 120.159C109.674 120.137 109.678 120.115 109.678 120.09V111.715C109.678 111.554 109.546 111.421 109.384 111.421H107.768V107.308H120.66C121.472 107.308 122.129 106.65 122.129 105.838V96.7293C122.129 95.9176 121.472 95.2601 120.66 95.2601ZM116.252 101.137H97.4467V94.0848H116.252V101.137ZM107.327 120.384C107.327 120.788 106.997 121.118 106.592 121.118C106.188 121.118 105.858 120.788 105.858 120.384V113.772H107.327V120.384Z" fill="#BE272D"/>
<path d="M177.925 120.225L175.494 111.663V93.0198C175.494 92.3086 174.92 91.734 174.209 91.734H145.923C145.212 91.734 144.637 92.3086 144.637 93.0198V111.663L142.206 120.225C141.905 121.064 142.524 121.948 143.416 121.948H176.716C177.608 121.948 178.226 121.064 177.925 120.225ZM147.53 94.6269H172.601V110.497H147.53V94.6269ZM156.703 119.055L157.028 117.569H163.067L163.393 119.055H156.703ZM165.703 119.055L164.935 115.572C164.903 115.423 164.771 115.319 164.622 115.319H155.477C155.325 115.319 155.196 115.423 155.164 115.572L154.397 119.055H145.545L147.245 113.069H172.887L174.586 119.055H165.703Z" fill="#BE272D"/>
</svg>
