<svg width="237" height="163" viewBox="0 0 237 163" fill="none" xmlns="http://www.w3.org/2000/svg">
<rect x="0.629272" y="0.876892" width="236.009" height="161.714" rx="10" fill="white"/>
<path d="M71.9046 71.5748C71.8047 71.5748 71.7067 71.5748 71.6067 71.5708C71.5414 71.5748 71.4761 71.5769 71.4088 71.5789L51.3586 71.734C50.9832 71.736 50.6077 71.6911 50.2445 71.5952C44.7943 70.7668 40.6704 66.1348 40.6296 60.756C40.5847 54.8956 45.2657 50.0494 51.2056 49.6393C52.281 44.6298 56.7926 40.9201 62.2611 40.8773C67.7522 40.8344 72.3597 44.5318 73.4738 49.574C78.9363 50.3473 83.1622 54.9058 83.205 60.4275C83.252 66.5246 78.1813 71.5238 71.9026 71.5728L71.9046 71.5748ZM71.4965 67.4795L71.6557 67.4836C71.7271 67.4836 71.8006 67.4877 71.872 67.4877C75.8306 67.4571 79.0261 64.3045 78.9975 60.4622C78.9689 56.6219 75.7306 53.5224 71.7761 53.5468L71.6598 53.5509L69.6091 53.5938L69.5132 51.6043C69.3336 47.8518 66.1606 44.9359 62.2897 44.9665C58.3923 44.9971 55.2642 47.9824 55.1703 51.7655L55.1132 53.9958L52.8299 53.7468C52.5238 53.7142 52.2402 53.6978 51.9606 53.6999C48.002 53.7305 44.8065 56.8831 44.8351 60.7254C44.8616 64.1473 47.5061 67.0898 50.9893 67.5713L51.1628 67.5958L51.3301 67.6468L71.3496 67.4938L71.4945 67.4816L71.4965 67.4795Z" fill="#D9D9D9"/>
<path d="M118.634 40.8769C110.112 40.8769 103.205 47.7836 103.205 56.3055V70.7698C103.205 71.3041 103.635 71.734 104.17 71.734H111.562C112.981 71.734 114.134 70.5809 114.134 69.1626V60.8055C114.134 59.3872 112.981 58.234 111.562 58.234H106.098V56.3055C106.098 49.3827 111.711 43.7697 118.634 43.7697C125.557 43.7697 131.17 49.3827 131.17 56.3055V58.234H125.705C124.287 58.234 123.134 59.3872 123.134 60.8055V69.1626C123.134 70.5809 124.287 71.734 125.705 71.734H133.098C133.633 71.734 134.062 71.3041 134.062 70.7698V56.3055C134.062 47.7836 127.156 40.8769 118.634 40.8769ZM111.241 61.1269V68.8412H106.098V61.1269H111.241ZM131.17 68.8412H126.027V61.1269H131.17V68.8412Z" fill="#BE272D"/>
<path d="M185.338 71.5748C185.238 71.5748 185.14 71.5748 185.04 71.5708C184.975 71.5748 184.909 71.5769 184.842 71.5789L164.792 71.734C164.416 71.736 164.041 71.6911 163.678 71.5952C158.228 70.7668 154.104 66.1348 154.063 60.756C154.018 54.8956 158.699 50.0494 164.639 49.6393C165.714 44.6298 170.226 40.9201 175.694 40.8773C181.185 40.8344 185.793 44.5318 186.907 49.574C192.37 50.3473 196.595 54.9058 196.638 60.4275C196.685 66.5246 191.615 71.5238 185.336 71.5728L185.338 71.5748ZM184.93 67.4795L185.089 67.4836C185.16 67.4836 185.234 67.4877 185.305 67.4877C189.264 67.4571 192.459 64.3045 192.431 60.4622C192.402 56.6219 189.164 53.5224 185.209 53.5468L185.093 53.5509L183.042 53.5938L182.946 51.6043C182.767 47.8518 179.594 44.9359 175.723 44.9665C171.826 44.9971 168.697 47.9824 168.604 51.7655L168.546 53.9958L166.263 53.7468C165.957 53.7142 165.673 53.6978 165.394 53.6999C161.435 53.7305 158.24 56.8831 158.268 60.7254C158.295 64.1473 160.939 67.0898 164.423 67.5713L164.596 67.5958L164.763 67.6468L184.783 67.4938L184.928 67.4816L184.93 67.4795Z" fill="#D9D9D9"/>
<path d="M73.9452 91.9089H65.7967C65.1091 91.9089 64.4965 92.3792 64.3345 93.0668C63.8406 95.1533 61.9714 96.651 59.7979 96.651C57.6244 96.651 55.7553 95.1533 55.2613 93.0668C55.1842 92.737 54.9978 92.443 54.7322 92.2327C54.4667 92.0225 54.1378 91.9083 53.7992 91.9089H45.6506C45.1895 91.9089 44.7472 92.0921 44.4211 92.4182C44.0951 92.7443 43.9119 93.1865 43.9119 93.6477V103.606C43.9119 104.067 44.0951 104.51 44.4211 104.836C44.7472 105.162 45.1895 105.345 45.6506 105.345H48.6145V120.678C48.6145 121.139 48.7976 121.581 49.1237 121.907C49.4498 122.233 49.8921 122.416 50.3532 122.416H69.2426C69.7038 122.416 70.146 122.233 70.4721 121.907C70.7982 121.581 70.9814 121.139 70.9814 120.678V105.345H73.9452C74.4063 105.345 74.8486 105.162 75.1747 104.836C75.5008 104.51 75.684 104.067 75.684 103.606V93.6477C75.684 93.1865 75.5008 92.7443 75.1747 92.4182C74.8486 92.0921 74.4063 91.9089 73.9452 91.9089ZM72.8387 102.5H68.1361V119.571H51.4597V102.5H46.7571V94.7542H52.8152C53.9296 97.5678 56.6681 99.4963 59.7979 99.4963C62.9277 99.4963 65.6663 97.5678 66.7807 94.7542H72.8387V102.5Z" fill="#BE272D"/>
<path d="M126.959 122.432C126.859 122.432 126.761 122.432 126.661 122.428C126.596 122.432 126.531 122.434 126.463 122.436L106.413 122.591C106.038 122.593 105.662 122.548 105.299 122.452C99.849 121.624 95.7251 116.992 95.6843 111.613C95.6394 105.753 100.32 100.907 106.26 100.496C107.336 95.487 111.847 91.7773 117.316 91.7344C122.807 91.6916 127.414 95.389 128.528 100.431C133.991 101.204 138.217 105.763 138.26 111.285C138.307 117.382 133.236 122.381 126.957 122.43L126.959 122.432ZM126.551 118.337L126.71 118.341C126.782 118.341 126.855 118.345 126.927 118.345C130.885 118.314 134.081 115.162 134.052 111.319C134.024 107.479 130.785 104.38 126.831 104.404L126.714 104.408L124.664 104.451L124.568 102.461C124.388 98.7089 121.215 95.793 117.344 95.8236C113.447 95.8542 110.319 98.8395 110.225 102.623L110.168 104.853L107.885 104.604C107.578 104.571 107.295 104.555 107.015 104.557C103.057 104.588 99.8612 107.74 99.8898 111.583C99.9163 115.005 102.561 117.947 106.044 118.429L106.217 118.453L106.385 118.504L126.404 118.351L126.549 118.339L126.551 118.337Z" fill="#D9D9D9"/>
<path d="M175.808 102.451C172.217 102.451 169.309 105.359 169.309 108.95C169.309 112.541 172.217 115.449 175.808 115.449C179.399 115.449 182.307 112.541 182.307 108.95C182.307 105.359 179.399 102.451 175.808 102.451ZM175.808 112.85C173.655 112.85 171.909 111.103 171.909 108.95C171.909 106.797 173.655 105.05 175.808 105.05C177.961 105.05 179.708 106.797 179.708 108.95C179.708 111.103 177.961 112.85 175.808 112.85Z" fill="#BE272D"/>
<path d="M190.106 96.9264H184.582L183.266 93.238C183.175 92.9857 183.008 92.7675 182.789 92.6134C182.569 92.4592 182.307 92.3767 182.039 92.3769H169.577C169.029 92.3769 168.537 92.7222 168.354 93.238L167.034 96.9264H161.51C159.714 96.9264 158.26 98.3806 158.26 100.176V118.699C158.26 120.494 159.714 121.948 161.51 121.948H190.106C191.902 121.948 193.356 120.494 193.356 118.699V100.176C193.356 98.3806 191.902 96.9264 190.106 96.9264ZM190.431 118.699C190.431 118.878 190.285 119.024 190.106 119.024H161.51C161.331 119.024 161.185 118.878 161.185 118.699V100.176C161.185 99.9972 161.331 99.851 161.51 99.851H169.094L170.718 95.3015H180.894L182.519 99.851H190.106C190.285 99.851 190.431 99.9972 190.431 100.176V118.699Z" fill="#BE272D"/>
</svg>
