<svg width="219" height="163" viewBox="0 0 219 163" fill="none" xmlns="http://www.w3.org/2000/svg">
<rect x="0.629272" y="0.876892" width="218" height="162" rx="10" fill="white"/>
<path d="M71.6286 40.8769H41.7774C41.1423 40.8769 40.6293 41.4439 40.6293 42.1457V67.5211C40.6293 68.2229 41.1423 68.7899 41.7774 68.7899H71.6286C72.2637 68.7899 72.7767 68.2229 72.7767 67.5211V42.1457C72.7767 41.4439 72.2637 40.8769 71.6286 40.8769ZM70.1934 65.9351H43.2125V64.3531L48.1818 57.8388L53.5672 64.8963L61.9449 53.9214L70.1934 64.7298V65.9351ZM70.1934 60.7887L62.1638 50.2658C62.0489 50.1151 61.8408 50.1151 61.726 50.2658L53.5672 60.9552L48.4006 54.1871C48.2858 54.0364 48.0777 54.0364 47.9629 54.1871L43.2125 60.412V43.7316H70.1934V60.7887ZM49.2402 52.613C49.6548 52.613 50.0654 52.5228 50.4485 52.3474C50.8315 52.1721 51.1796 51.9151 51.4728 51.5911C51.766 51.2671 51.9985 50.8825 52.1572 50.4591C52.3159 50.0358 52.3975 49.5821 52.3975 49.1239C52.3975 48.6657 52.3159 48.212 52.1572 47.7887C51.9985 47.3654 51.766 46.9807 51.4728 46.6567C51.1796 46.3327 50.8315 46.0757 50.4485 45.9004C50.0654 45.725 49.6548 45.6348 49.2402 45.6348C48.4028 45.6348 47.5997 46.0024 47.0076 46.6567C46.4155 47.3111 46.0829 48.1985 46.0829 49.1239C46.0829 50.0493 46.4155 50.9367 47.0076 51.5911C47.5997 52.2454 48.4028 52.613 49.2402 52.613ZM49.2402 48.0137C49.7963 48.0137 50.2448 48.5093 50.2448 49.1239C50.2448 49.7385 49.7963 50.2341 49.2402 50.2341C48.6841 50.2341 48.2356 49.7385 48.2356 49.1239C48.2356 48.5093 48.6841 48.0137 49.2402 48.0137Z" fill="#BE272D"/>
<path d="M123.776 40.8769H93.9249C93.2898 40.8769 92.7767 41.4439 92.7767 42.1457V67.521C92.7767 68.2228 93.2898 68.7897 93.9249 68.7897H123.776C124.411 68.7897 124.924 68.2228 124.924 67.521V42.1457C124.924 41.4439 124.411 40.8769 123.776 40.8769ZM122.341 65.935H95.36V64.353L100.329 57.8387L105.715 64.8962L114.092 53.9214L122.341 64.7297V65.935ZM122.341 60.7886L114.311 50.2658C114.196 50.1151 113.988 50.1151 113.873 50.2658L105.715 60.9551L100.548 54.187C100.433 54.0364 100.225 54.0364 100.11 54.187L95.36 60.4119V43.7316H122.341V60.7886ZM101.388 52.613C101.802 52.613 102.213 52.5227 102.596 52.3474C102.979 52.172 103.327 51.915 103.62 51.591C103.913 51.267 104.146 50.8824 104.305 50.4591C104.463 50.0358 104.545 49.5821 104.545 49.1239C104.545 48.6657 104.463 48.212 104.305 47.7886C104.146 47.3653 103.913 46.9807 103.62 46.6567C103.327 46.3327 102.979 46.0757 102.596 45.9004C102.213 45.725 101.802 45.6348 101.388 45.6348C100.55 45.6348 99.7472 46.0024 99.1551 46.6567C98.5629 47.311 98.2303 48.1985 98.2303 49.1239C98.2303 50.0492 98.5629 50.9367 99.1551 51.591C99.7472 52.2454 100.55 52.613 101.388 52.613ZM101.388 48.0137C101.944 48.0137 102.392 48.5093 102.392 49.1239C102.392 49.7384 101.944 50.234 101.388 50.234C100.831 50.234 100.383 49.7384 100.383 49.1239C100.383 48.5093 100.831 48.0137 101.388 48.0137Z" fill="#D9D9D9"/>
<path d="M175.923 40.8769H146.072C145.437 40.8769 144.924 41.4439 144.924 42.1457V67.521C144.924 68.2228 145.437 68.7897 146.072 68.7897H175.923C176.558 68.7897 177.071 68.2228 177.071 67.521V42.1457C177.071 41.4439 176.558 40.8769 175.923 40.8769ZM174.488 65.935H147.507V64.353L152.477 57.8387L157.862 64.8962L166.24 53.9214L174.488 64.7297V65.935ZM174.488 60.7886L166.458 50.2658C166.344 50.1151 166.136 50.1151 166.021 50.2658L157.862 60.9551L152.695 54.187C152.581 54.0364 152.372 54.0364 152.258 54.187L147.507 60.4119V43.7316H174.488V60.7886ZM153.535 52.613C153.95 52.613 154.36 52.5227 154.743 52.3474C155.126 52.172 155.474 51.915 155.768 51.591C156.061 51.267 156.293 50.8824 156.452 50.4591C156.611 50.0358 156.692 49.5821 156.692 49.1239C156.692 48.6657 156.611 48.212 156.452 47.7886C156.293 47.3653 156.061 46.9807 155.768 46.6567C155.474 46.3327 155.126 46.0757 154.743 45.9004C154.36 45.725 153.95 45.6348 153.535 45.6348C152.698 45.6348 151.895 46.0024 151.302 46.6567C150.71 47.311 150.378 48.1985 150.378 49.1239C150.378 50.0492 150.71 50.9367 151.302 51.591C151.895 52.2454 152.698 52.613 153.535 52.613ZM153.535 48.0137C154.091 48.0137 154.54 48.5093 154.54 49.1239C154.54 49.7384 154.091 50.234 153.535 50.234C152.979 50.234 152.53 49.7384 152.53 49.1239C152.53 48.5093 152.979 48.0137 153.535 48.0137Z" fill="#D9D9D9"/>
<path d="M71.6286 88.7899H41.7774C41.1423 88.7899 40.6293 89.3568 40.6293 90.0586V115.434C40.6293 116.136 41.1423 116.703 41.7774 116.703H71.6286C72.2637 116.703 72.7767 116.136 72.7767 115.434V90.0586C72.7767 89.3568 72.2637 88.7899 71.6286 88.7899ZM70.1934 113.848H43.2125V112.266L48.1818 105.752L53.5672 112.809L61.9449 101.834L70.1934 112.643V113.848ZM70.1934 108.702L62.1638 98.1788C62.0489 98.0281 61.8408 98.0281 61.726 98.1788L53.5672 108.868L48.4006 102.1C48.2858 101.949 48.0777 101.949 47.9629 102.1L43.2125 108.325V91.6446H70.1934V108.702ZM49.2402 100.526C49.6548 100.526 50.0654 100.436 50.4485 100.26C50.8315 100.085 51.1796 99.828 51.4728 99.504C51.766 99.1801 51.9985 98.7954 52.1572 98.3721C52.3159 97.9488 52.3975 97.4951 52.3975 97.0369C52.3975 96.5787 52.3159 96.125 52.1572 95.7016C51.9985 95.2783 51.766 94.8937 51.4728 94.5697C51.1796 94.2457 50.8315 93.9887 50.4485 93.8133C50.0654 93.638 49.6548 93.5477 49.2402 93.5477C48.4028 93.5477 47.5997 93.9153 47.0076 94.5697C46.4155 95.224 46.0829 96.1115 46.0829 97.0369C46.0829 97.9622 46.4155 98.8497 47.0076 99.504C47.5997 100.158 48.4028 100.526 49.2402 100.526ZM49.2402 95.9267C49.7963 95.9267 50.2448 96.4223 50.2448 97.0369C50.2448 97.6514 49.7963 98.147 49.2402 98.147C48.6841 98.147 48.2356 97.6514 48.2356 97.0369C48.2356 96.4223 48.6841 95.9267 49.2402 95.9267Z" fill="#D9D9D9"/>
<path d="M123.776 88.7899H93.9249C93.2898 88.7899 92.7767 89.3568 92.7767 90.0586V115.434C92.7767 116.136 93.2898 116.703 93.9249 116.703H123.776C124.411 116.703 124.924 116.136 124.924 115.434V90.0586C124.924 89.3568 124.411 88.7899 123.776 88.7899ZM122.341 113.848H95.36V112.266L100.329 105.752L105.715 112.809L114.092 101.834L122.341 112.643V113.848ZM122.341 108.702L114.311 98.1787C114.196 98.0281 113.988 98.0281 113.873 98.1787L105.715 108.868L100.548 102.1C100.433 101.949 100.225 101.949 100.11 102.1L95.36 108.325V91.6446H122.341V108.702ZM101.388 100.526C101.802 100.526 102.213 100.436 102.596 100.26C102.979 100.085 103.327 99.828 103.62 99.504C103.913 99.18 104.146 98.7954 104.305 98.3721C104.463 97.9487 104.545 97.495 104.545 97.0368C104.545 96.5786 104.463 96.1249 104.305 95.7016C104.146 95.2783 103.913 94.8937 103.62 94.5697C103.327 94.2457 102.979 93.9887 102.596 93.8133C102.213 93.638 101.802 93.5477 101.388 93.5477C100.55 93.5477 99.7472 93.9153 99.1551 94.5697C98.5629 95.224 98.2303 96.1115 98.2303 97.0368C98.2303 97.9622 98.5629 98.8497 99.1551 99.504C99.7472 100.158 100.55 100.526 101.388 100.526ZM101.388 95.9267C101.944 95.9267 102.392 96.4223 102.392 97.0368C102.392 97.6514 101.944 98.147 101.388 98.147C100.831 98.147 100.383 97.6514 100.383 97.0368C100.383 96.4223 100.831 95.9267 101.388 95.9267Z" fill="#D9D9D9"/>
<path d="M175.923 88.7899H146.072C145.437 88.7899 144.924 89.3568 144.924 90.0586V115.434C144.924 116.136 145.437 116.703 146.072 116.703H175.923C176.558 116.703 177.071 116.136 177.071 115.434V90.0586C177.071 89.3568 176.558 88.7899 175.923 88.7899ZM174.488 113.848H147.507V112.266L152.477 105.752L157.862 112.809L166.24 101.834L174.488 112.643V113.848ZM174.488 108.702L166.458 98.1787C166.344 98.0281 166.136 98.0281 166.021 98.1787L157.862 108.868L152.695 102.1C152.581 101.949 152.372 101.949 152.258 102.1L147.507 108.325V91.6446H174.488V108.702ZM153.535 100.526C153.95 100.526 154.36 100.436 154.743 100.26C155.126 100.085 155.474 99.828 155.768 99.504C156.061 99.18 156.293 98.7954 156.452 98.3721C156.611 97.9487 156.692 97.495 156.692 97.0368C156.692 96.5786 156.611 96.1249 156.452 95.7016C156.293 95.2783 156.061 94.8937 155.768 94.5697C155.474 94.2457 155.126 93.9887 154.743 93.8133C154.36 93.638 153.95 93.5477 153.535 93.5477C152.698 93.5477 151.895 93.9153 151.302 94.5697C150.71 95.224 150.378 96.1115 150.378 97.0368C150.378 97.9622 150.71 98.8497 151.302 99.504C151.895 100.158 152.698 100.526 153.535 100.526ZM153.535 95.9267C154.091 95.9267 154.54 96.4223 154.54 97.0368C154.54 97.6514 154.091 98.147 153.535 98.147C152.979 98.147 152.53 97.6514 152.53 97.0368C152.53 96.4223 152.979 95.9267 153.535 95.9267Z" fill="#D9D9D9"/>
</svg>
