<svg width="231" height="162" viewBox="0 0 231 162" fill="none" xmlns="http://www.w3.org/2000/svg">
<rect x="0.629272" y="0.876892" width="230" height="161" rx="10" fill="white"/>
<rect x="41.6293" y="41.8769" width="150" height="35" rx="9" fill="white"/>
<path d="M68.7093 65.2009C67.5786 65.4462 66.5599 65.5689 65.6533 65.5689C64.7466 65.5689 64.0213 65.4569 63.4773 65.2329C62.9333 65.0089 62.5066 64.6516 62.1973 64.1609C61.8879 63.6702 61.6746 63.0942 61.5573 62.4329C61.4399 61.7716 61.3813 60.9396 61.3813 59.9369C61.3813 57.8356 61.6746 56.3742 62.2613 55.5529C62.8586 54.7209 63.9519 54.3049 65.5413 54.3049C66.4586 54.3049 67.5199 54.4489 68.7253 54.7369L68.6613 56.4969C67.6053 56.3369 66.7253 56.2569 66.0213 56.2569C65.3279 56.2569 64.8319 56.3529 64.5333 56.5449C64.2346 56.7262 64.0106 57.0782 63.8613 57.6009C63.7226 58.1236 63.6533 59.0142 63.6533 60.2729C63.6533 61.5316 63.7973 62.4062 64.0853 62.8969C64.3839 63.3769 64.9706 63.6169 65.8453 63.6169C66.7306 63.6169 67.6693 63.5422 68.6613 63.3929L68.7093 65.2009ZM76.4368 59.8729V63.2009C76.4581 63.4569 76.5008 63.6382 76.5648 63.7449C76.6288 63.8409 76.7621 63.9102 76.9648 63.9529L76.9008 65.5689C76.3568 65.5689 75.9194 65.5316 75.5888 65.4569C75.2688 65.3822 74.9434 65.2329 74.6128 65.0089C73.8448 65.3822 73.0608 65.5689 72.2608 65.5689C70.6074 65.5689 69.7808 64.6942 69.7808 62.9449C69.7808 62.0916 70.0101 61.4889 70.4688 61.1369C70.9274 60.7742 71.6314 60.5609 72.5808 60.4969L74.2928 60.3689V59.8729C74.2928 59.5422 74.2181 59.3182 74.0688 59.2009C73.9194 59.0729 73.6794 59.0089 73.3488 59.0089L70.3408 59.1369L70.2768 57.6489C71.4181 57.3396 72.5008 57.1849 73.5248 57.1849C74.5594 57.1849 75.3008 57.3982 75.7488 57.8249C76.2074 58.2516 76.4368 58.9342 76.4368 59.8729ZM72.8368 61.9849C72.2394 62.0382 71.9408 62.3582 71.9408 62.9449C71.9408 63.5316 72.2021 63.8249 72.7248 63.8249C73.1301 63.8249 73.5728 63.7609 74.0528 63.6329L74.2928 63.5689V61.8569L72.8368 61.9849ZM82.9126 59.2009H80.9446V62.4809C80.9446 62.8009 80.95 63.0302 80.9606 63.1689C80.982 63.2969 81.0406 63.4089 81.1366 63.5049C81.2433 63.6009 81.4033 63.6489 81.6166 63.6489L82.8326 63.6169L82.9286 65.3289C82.214 65.4889 81.67 65.5689 81.2966 65.5689C80.3366 65.5689 79.6806 65.3556 79.3286 64.9289C78.9766 64.4916 78.8006 63.6916 78.8006 62.5289V59.2009H77.8566V57.3769H78.8006V55.1529H80.9446V57.3769H82.9126V59.2009ZM86.0688 62.2889C86.0794 62.7796 86.2074 63.1369 86.4528 63.3609C86.7088 63.5742 87.0714 63.6809 87.5408 63.6809C88.5328 63.6809 89.4181 63.6489 90.1968 63.5849L90.6448 63.5369L90.6768 65.1209C89.4501 65.4196 88.3408 65.5689 87.3488 65.5689C86.1434 65.5689 85.2688 65.2489 84.7248 64.6089C84.1808 63.9689 83.9088 62.9289 83.9088 61.4889C83.9088 58.6196 85.0874 57.1849 87.4448 57.1849C89.7701 57.1849 90.9328 58.3902 90.9328 60.8009L90.7728 62.2889H86.0688ZM88.8208 60.6569C88.8208 60.0169 88.7194 59.5742 88.5168 59.3289C88.3141 59.0729 87.9568 58.9449 87.4448 58.9449C86.9434 58.9449 86.5861 59.0782 86.3728 59.3449C86.1701 59.6009 86.0634 60.0382 86.0528 60.6569H88.8208ZM99.713 66.3689C99.713 67.2862 99.361 67.9636 98.657 68.4009C97.953 68.8382 96.9984 69.0569 95.793 69.0569C94.5984 69.0569 93.6757 68.8969 93.025 68.5769C92.385 68.2569 92.065 67.6756 92.065 66.8329C92.065 66.1609 92.449 65.5262 93.217 64.9289C92.8224 64.6622 92.625 64.2569 92.625 63.7129C92.625 63.4996 92.785 63.1476 93.105 62.6569L93.249 62.4329C92.5237 61.9102 92.161 61.1422 92.161 60.1289C92.161 59.1049 92.465 58.3636 93.073 57.9049C93.6917 57.4462 94.5077 57.2169 95.521 57.2169C95.9797 57.2169 96.433 57.2702 96.881 57.3769L97.137 57.4249L99.713 57.3449V59.0569L98.513 58.9609C98.7477 59.3236 98.865 59.6862 98.865 60.0489C98.865 61.1156 98.593 61.8516 98.049 62.2569C97.505 62.6622 96.6517 62.8649 95.489 62.8649C95.2437 62.8649 95.025 62.8436 94.833 62.8009C94.7264 63.0782 94.673 63.3076 94.673 63.4889C94.673 63.6596 94.7637 63.7769 94.945 63.8409C95.1264 63.9049 95.553 63.9422 96.225 63.9529C97.569 63.9636 98.4864 64.1449 98.977 64.4969C99.4677 64.8382 99.713 65.4622 99.713 66.3689ZM94.177 66.6089C94.177 67.0676 94.737 67.2969 95.857 67.2969C96.9877 67.2969 97.553 67.0302 97.553 66.4969C97.553 66.2089 97.457 66.0222 97.265 65.9369C97.073 65.8622 96.6677 65.8196 96.049 65.8089L94.609 65.6969C94.321 65.9849 94.177 66.2889 94.177 66.6089ZM94.305 60.0649C94.305 60.8436 94.7104 61.2329 95.521 61.2329C96.3424 61.2329 96.753 60.8436 96.753 60.0649C96.753 59.2756 96.3424 58.8809 95.521 58.8809C94.7104 58.8809 94.305 59.2756 94.305 60.0649ZM101.444 58.2889C102.009 57.5529 102.953 57.1849 104.276 57.1849C105.599 57.1849 106.543 57.5529 107.108 58.2889C107.673 59.0142 107.956 60.0382 107.956 61.3609C107.956 64.1662 106.729 65.5689 104.276 65.5689C101.823 65.5689 100.596 64.1662 100.596 61.3609C100.596 60.0382 100.879 59.0142 101.444 58.2889ZM103.092 63.1689C103.316 63.5529 103.711 63.7449 104.276 63.7449C104.841 63.7449 105.231 63.5529 105.444 63.1689C105.668 62.7849 105.78 62.1822 105.78 61.3609C105.78 60.5396 105.668 59.9422 105.444 59.5689C105.231 59.1956 104.841 59.0089 104.276 59.0089C103.711 59.0089 103.316 59.1956 103.092 59.5689C102.879 59.9422 102.772 60.5396 102.772 61.3609C102.772 62.1822 102.879 62.7849 103.092 63.1689ZM109.528 65.3769V57.3769H111.656V58.2249C112.552 57.6916 113.405 57.3449 114.216 57.1849V59.3449C113.352 59.5262 112.61 59.7129 111.992 59.9049L111.672 60.0169V65.3769H109.528ZM114.985 54.9609L119.017 53.3289L119.657 55.1689L115.465 56.3529L114.985 54.9609ZM115.481 57.3769H117.625V65.3769H115.481V57.3769ZM125.734 59.8729V63.2009C125.755 63.4569 125.798 63.6382 125.862 63.7449C125.926 63.8409 126.059 63.9102 126.262 63.9529L126.198 65.5689C125.654 65.5689 125.216 65.5316 124.886 65.4569C124.566 65.3822 124.24 65.2329 123.91 65.0089C123.142 65.3822 122.358 65.5689 121.558 65.5689C119.904 65.5689 119.078 64.6942 119.078 62.9449C119.078 62.0916 119.307 61.4889 119.766 61.1369C120.224 60.7742 120.928 60.5609 121.878 60.4969L123.59 60.3689V59.8729C123.59 59.5422 123.515 59.3182 123.366 59.2009C123.216 59.0729 122.976 59.0089 122.646 59.0089L119.638 59.1369L119.574 57.6489C120.715 57.3396 121.798 57.1849 122.822 57.1849C123.856 57.1849 124.598 57.3982 125.046 57.8249C125.504 58.2516 125.734 58.9342 125.734 59.8729ZM122.134 61.9849C121.536 62.0382 121.238 62.3582 121.238 62.9449C121.238 63.5316 121.499 63.8249 122.022 63.8249C122.427 63.8249 122.87 63.7609 123.35 63.6329L123.59 63.5689V61.8569L122.134 61.9849ZM133.522 59.3769C132.199 59.2062 131.271 59.1209 130.738 59.1209C130.215 59.1209 129.874 59.1689 129.714 59.2649C129.564 59.3609 129.49 59.5156 129.49 59.7289C129.49 59.9316 129.591 60.0756 129.794 60.1609C130.007 60.2356 130.54 60.3529 131.394 60.5129C132.258 60.6622 132.871 60.9129 133.234 61.2649C133.596 61.6169 133.778 62.1876 133.778 62.9769C133.778 64.7049 132.706 65.5689 130.562 65.5689C129.858 65.5689 129.004 65.4729 128.002 65.2809L127.49 65.1849L127.554 63.3929C128.876 63.5636 129.794 63.6489 130.306 63.6489C130.828 63.6489 131.18 63.6009 131.362 63.5049C131.554 63.3982 131.65 63.2436 131.65 63.0409C131.65 62.8382 131.548 62.6889 131.346 62.5929C131.154 62.4969 130.642 62.3796 129.81 62.2409C128.988 62.1022 128.375 61.8676 127.97 61.5369C127.564 61.2062 127.362 60.6196 127.362 59.7769C127.362 58.9236 127.65 58.2836 128.226 57.8569C128.802 57.4196 129.543 57.2009 130.45 57.2009C131.079 57.2009 131.938 57.3022 133.026 57.5049L133.554 57.6009L133.522 59.3769Z" fill="#BE272D"/>
<path d="M177.299 52.3403H175.238C175.098 52.3403 174.966 52.409 174.883 52.5217L167.074 63.2855L159.266 52.5217C159.183 52.409 159.051 52.3403 158.911 52.3403H156.85C156.671 52.3403 156.566 52.5437 156.671 52.6894L166.363 66.0506C166.714 66.5344 167.435 66.5344 167.784 66.0506L177.475 52.6894C177.583 52.5437 177.478 52.3403 177.299 52.3403Z" fill="#BE272D"/>
<rect x="41.6293" y="41.8769" width="150" height="35" rx="9" stroke="#BE272D" stroke-width="2"/>
<path d="M65.7874 109.814L54.8378 98.8702L54.1039 98.1363C53.9366 97.9701 53.7105 97.8769 53.4748 97.8769C53.2391 97.8769 53.0129 97.9701 52.8457 98.1363L41.1621 109.814C40.9908 109.985 40.8554 110.188 40.7639 110.412C40.6724 110.636 40.6266 110.876 40.6294 111.118C40.6407 112.115 41.471 112.911 42.4685 112.911H43.6728V122.141H63.2767V112.911H64.5066C64.9911 112.911 65.4474 112.722 65.7902 112.379C65.9591 112.21 66.0929 112.01 66.1838 111.79C66.2748 111.57 66.3211 111.333 66.3202 111.095C66.3202 110.613 66.1303 110.157 65.7874 109.814ZM55.0617 120.101H51.8879V114.32H55.0617V120.101ZM61.2364 110.871V120.101H56.8753V113.64C56.8753 113.013 56.368 112.506 55.7418 112.506H51.2078C50.5815 112.506 50.0743 113.013 50.0743 113.64V120.101H45.7131V110.871H42.9927L53.4776 100.395L54.1322 101.049L63.9596 110.871H61.2364Z" fill="#BE272D"/>
<path d="M109.25 99.3327H106.459V98.1195C106.459 97.9861 106.35 97.8769 106.217 97.8769H90.6877C90.5543 97.8769 90.4451 97.9861 90.4451 98.1195V99.3327H87.6547C87.3008 99.3327 86.9613 99.4733 86.7111 99.7236C86.4608 99.9739 86.3202 100.313 86.3202 100.667V105.156C86.3202 107.634 88.14 109.694 90.5118 110.07C90.9819 113.594 93.8117 116.369 97.3604 116.757V119.948H91.4157C90.8788 119.948 90.4451 120.382 90.4451 120.919V121.898C90.4451 122.032 90.5543 122.141 90.6877 122.141H106.217C106.35 122.141 106.459 122.032 106.459 121.898V120.919C106.459 120.382 106.026 119.948 105.489 119.948H99.5442V116.757C103.093 116.369 105.923 113.594 106.393 110.07C108.765 109.694 110.584 107.634 110.584 105.156V100.667C110.584 100.313 110.444 99.9739 110.193 99.7236C109.943 99.4733 109.604 99.3327 109.25 99.3327ZM88.504 105.156V101.517H90.4451V107.813C89.8817 107.633 89.3901 107.279 89.0412 106.801C88.6923 106.324 88.5041 105.748 88.504 105.156ZM104.276 109.038C104.276 110.528 103.696 111.932 102.641 112.984C101.585 114.04 100.184 114.619 98.6949 114.619H98.2096C96.7204 114.619 95.3161 114.04 94.2637 112.984C93.2082 111.929 92.6289 110.528 92.6289 109.038V100.061H104.276V109.038ZM108.401 105.156C108.401 106.4 107.585 107.455 106.459 107.813V101.517H108.401V105.156Z" fill="#BE272D"/>
<path d="M148.782 97.8769H131.451C130.972 97.8769 130.584 98.2641 130.584 98.7435V121.274C130.584 121.754 130.972 122.141 131.451 122.141H148.782C149.262 122.141 149.649 121.754 149.649 121.274V98.7435C149.649 98.2641 149.262 97.8769 148.782 97.8769ZM132.534 99.8267H147.699V105.459H132.534V99.8267ZM147.699 112.825H132.534V107.193H147.699V112.825ZM147.699 120.191H132.534V114.559H147.699V120.191ZM139.683 101.776H134.701C134.581 101.776 134.484 101.874 134.484 101.993V103.293C134.484 103.412 134.581 103.51 134.701 103.51H139.683C139.803 103.51 139.9 103.412 139.9 103.293V101.993C139.9 101.874 139.803 101.776 139.683 101.776ZM134.701 110.876H139.683C139.803 110.876 139.9 110.778 139.9 110.659V109.359C139.9 109.24 139.803 109.142 139.683 109.142H134.701C134.581 109.142 134.484 109.24 134.484 109.359V110.659C134.484 110.778 134.581 110.876 134.701 110.876ZM143.583 117.483C143.583 117.77 143.697 118.046 143.9 118.249C144.103 118.452 144.379 118.566 144.666 118.566C144.954 118.566 145.229 118.452 145.432 118.249C145.635 118.046 145.749 117.77 145.749 117.483C145.749 117.196 145.635 116.92 145.432 116.717C145.229 116.514 144.954 116.4 144.666 116.4C144.379 116.4 144.103 116.514 143.9 116.717C143.697 116.92 143.583 117.196 143.583 117.483Z" fill="#BE272D"/>
<path d="M196.94 109.683C196.938 109.213 196.89 108.742 196.834 108.274C196.772 107.747 196.512 107.284 196.177 106.88C195.962 106.62 195.935 106.367 195.947 106.064C195.968 105.523 195.955 104.981 195.956 104.44C195.958 103.207 195.957 101.974 195.962 100.742C195.964 100.359 195.897 99.9899 195.756 99.6324C195.738 99.5842 195.721 99.5363 195.703 99.4882C195.56 99.2765 195.433 99.053 195.27 98.8564C195.139 98.6981 194.81 98.4323 194.81 98.4323L194.34 98.1456C194.223 98.1043 193.99 98.0221 193.99 98.0221L193.599 97.9198C193.561 97.9172 193.523 97.9149 193.485 97.9123C193.287 97.9247 173.058 97.8769 173.058 97.8769L173.039 97.8805C172.765 97.9667 172.483 98.0325 172.221 98.144C171.824 98.3134 171.499 98.5805 171.241 98.9186C171.214 98.957 171.187 98.9953 171.161 99.0337C171.15 99.0343 171.14 99.0353 171.13 99.0366C170.873 99.4298 170.681 99.8516 170.625 100.313C170.591 100.595 170.615 100.885 170.619 101.171C170.623 101.469 170.64 101.767 170.641 102.065C170.645 103.417 170.645 104.768 170.647 106.119C170.647 106.166 170.307 107.057 170.023 107.79C169.776 108.428 169.651 109.104 169.651 109.785C169.651 109.789 169.651 109.792 169.651 109.796C169.65 112.283 169.65 114.771 169.649 117.258C169.649 117.425 169.649 117.593 169.649 117.76C169.66 117.773 169.67 117.787 169.681 117.8C169.713 118.131 169.902 118.394 170.077 118.664C170.143 118.728 170.246 118.826 170.312 118.89C170.492 119.001 170.672 119.111 170.852 119.222C170.904 119.235 170.956 119.247 171.008 119.26C171.048 119.27 171.088 119.281 171.128 119.29C171.153 119.293 171.178 119.295 171.203 119.297C171.281 119.31 171.359 119.323 171.437 119.335C171.482 119.333 171.526 119.331 171.587 119.328V120.487C171.591 120.512 171.595 120.536 171.599 120.56C171.666 120.753 171.733 120.947 171.799 121.14L171.857 121.235C172.044 121.434 172.23 121.633 172.417 121.832L172.485 121.879C172.617 121.938 172.75 121.996 172.882 122.054C172.907 122.057 172.931 122.06 172.956 122.063C173.087 122.088 173.218 122.113 173.349 122.138C174.103 122.139 174.858 122.14 175.612 122.14L176.073 122.06C176.141 122.036 176.208 122.011 176.275 121.987L176.348 121.957C176.388 121.939 176.428 121.92 176.468 121.902C176.686 121.704 176.887 121.52 177.105 121.322C177.119 121.296 177.134 121.27 177.149 121.244C177.406 120.878 177.431 120.459 177.445 120.038C177.452 119.826 177.447 119.613 177.448 119.4L177.491 119.354C177.562 119.347 177.634 119.337 177.705 119.337C181.468 119.335 185.231 119.334 188.994 119.334C189.043 119.334 189.093 119.342 189.156 119.348C189.156 119.608 189.15 119.856 189.158 120.104C189.165 120.319 189.154 120.541 189.209 120.746C189.42 121.524 190.108 122.109 190.986 122.127C191.807 122.145 192.634 122.16 193.449 122.079C194.078 122.017 194.56 121.621 194.803 121.056C194.936 120.744 194.956 120.384 194.998 120.041C195.026 119.809 195.003 119.572 195.003 119.335C195.491 119.3 195.915 119.15 196.289 118.876C196.548 118.631 196.755 118.355 196.858 118.016C196.869 117.983 196.871 117.946 196.877 117.911C196.886 117.898 196.896 117.885 196.906 117.872C196.919 117.527 196.943 117.181 196.943 116.836C196.947 114.452 196.951 112.068 196.94 109.684V109.683ZM172.54 101.452C172.542 100.448 173.398 99.6382 174.445 99.6468C178.9 99.6828 189.851 99.7713 192.7 99.7874C193.45 99.7916 194.056 100.376 194.055 101.095C194.053 102.2 194.049 105.333 194.049 105.333L192.192 105.329C192.149 105.29 192.12 105.265 192.077 105.226C192.071 105.13 192.063 105.034 192.062 104.939C192.055 104.105 192.05 103.271 192.043 102.437C192.039 102.061 191.652 101.657 191.244 101.616C191.013 101.592 190.78 101.587 190.548 101.587C189.323 101.585 186.57 101.591 185.161 101.595C184.681 101.596 184.291 101.967 184.287 102.427L184.26 105.333C184.26 105.333 182.757 105.341 182.276 105.336L182.277 102.459C182.277 101.966 181.859 101.567 181.344 101.571C180.682 101.575 176.966 101.588 175.341 101.594C174.917 101.596 174.574 101.921 174.568 102.327C174.554 103.227 174.533 104.714 174.533 105.311C174.449 105.32 172.527 105.333 172.527 105.333C172.529 105.207 172.536 103.072 172.54 101.451L172.54 101.452ZM190.315 103.302V105.333H186.005V103.302H190.315ZM180.6 103.302V105.333H176.29V103.302H180.6ZM175.303 120.735H173.719C173.419 120.735 173.177 120.503 173.177 120.216V119.681C173.177 119.395 173.419 119.162 173.719 119.162H175.303C175.602 119.162 175.845 119.395 175.845 119.681V120.216C175.845 120.503 175.602 120.735 175.303 120.735ZM193.012 120.571H191.278C191.124 120.571 190.999 120.451 190.999 120.304V119.462C190.999 119.314 191.124 119.195 191.278 119.195H193.012C193.166 119.195 193.291 119.314 193.291 119.462V120.304C193.291 120.451 193.166 120.571 193.012 120.571ZM195.104 116.131C195.104 116.737 194.591 117.229 193.958 117.229H172.749C172.116 117.229 171.603 116.737 171.603 116.131C171.603 115.525 172.116 115.033 172.749 115.033H193.958C194.591 115.033 195.104 115.525 195.104 116.131ZM195.104 111.748C195.104 112.712 194.289 113.493 193.283 113.493H173.425C172.419 113.493 171.603 112.712 171.603 111.748V109.175C171.603 108.211 172.419 107.43 173.425 107.43H193.283C194.289 107.43 195.104 108.211 195.104 109.175V111.748H195.104Z" fill="#BE272D"/>
</svg>
