<svg width="28" height="22" viewBox="0 0 28 22" fill="none" xmlns="http://www.w3.org/2000/svg">
<path id="datos personales Vector" d="M26.2859 0.570293H1.34783C0.817296 0.570293 0.388672 0.998917 0.388672 1.52945V20.7126C0.388672 21.2431 0.817296 21.6718 1.34783 21.6718H26.2859C26.8165 21.6718 27.2451 21.2431 27.2451 20.7126V1.52945C27.2451 0.998917 26.8165 0.570293 26.2859 0.570293ZM25.087 19.5137H2.54678V2.7284H25.087V19.5137ZM16.7633 10.042H20.4621C20.501 10.042 20.531 9.93407 20.531 9.80219V8.36345C20.531 8.23157 20.501 8.12366 20.4621 8.12366H16.7633C16.7243 8.12366 16.6944 8.23157 16.6944 8.36345V9.80219C16.6944 9.93407 16.7243 10.042 16.7633 10.042ZM16.9072 14.3582H22.4733C22.5902 14.3582 22.6861 14.2503 22.6861 14.1184V12.6797C22.6861 12.5478 22.5902 12.4399 22.4733 12.4399H16.9072C16.7903 12.4399 16.6944 12.5478 16.6944 12.6797V14.1184C16.6944 14.2503 16.7903 14.3582 16.9072 14.3582ZM5.18446 15.9468H6.50031C6.6262 15.9468 6.72811 15.8479 6.7371 15.722C6.851 14.2083 8.11589 13.0094 9.65054 13.0094C11.1852 13.0094 12.4501 14.2083 12.564 15.722C12.573 15.8479 12.6749 15.9468 12.8008 15.9468H14.1166C14.1491 15.9468 14.1813 15.9403 14.2112 15.9275C14.2411 15.9147 14.2681 15.8959 14.2906 15.8724C14.313 15.8488 14.3304 15.821 14.3417 15.7905C14.353 15.76 14.358 15.7275 14.3564 15.695C14.2725 14.0974 13.3973 12.7066 12.1204 11.9153C12.6835 11.2964 12.9946 10.4891 12.9926 9.65232C12.9926 7.79695 11.4969 6.29527 9.65354 6.29527C7.81016 6.29527 6.31447 7.79695 6.31447 9.65232C6.31447 10.5246 6.64418 11.3159 7.1867 11.9153C6.53666 12.3182 5.99377 12.8723 5.60439 13.5305C5.21501 14.1887 4.99072 14.9313 4.95067 15.695C4.93868 15.8329 5.04658 15.9468 5.18446 15.9468ZM9.65054 8.09369C10.5048 8.09369 11.2002 8.79208 11.2002 9.65232C11.2002 10.5126 10.5048 11.211 9.65054 11.211C8.79629 11.211 8.1009 10.5126 8.1009 9.65232C8.1009 8.79208 8.79629 8.09369 9.65054 8.09369Z" fill="#BE272D"/>
</svg>
