<svg width="42" height="41" viewBox="0 0 42 41" fill="none" xmlns="http://www.w3.org/2000/svg">
<g id="Vector">
<path d="M20.6377 0C9.37895 0 0.25 9.12895 0.25 20.3877C0.25 31.6464 9.37895 40.7754 20.6377 40.7754C31.8964 40.7754 41.0254 31.6464 41.0254 20.3877C41.0254 9.12895 31.8964 0 20.6377 0ZM20.6377 37.3168C11.2903 37.3168 3.70863 29.7351 3.70863 20.3877C3.70863 11.0403 11.2903 3.45863 20.6377 3.45863C29.9851 3.45863 37.5668 11.0403 37.5668 20.3877C37.5668 29.7351 29.9851 37.3168 20.6377 37.3168Z" fill="#BE272D"/>
<path d="M18.4526 28.3971C18.4526 28.9765 18.6827 29.5321 19.0924 29.9417C19.502 30.3514 20.0576 30.5815 20.637 30.5815C21.2163 30.5815 21.7719 30.3514 22.1816 29.9417C22.5912 29.5321 22.8214 28.9765 22.8214 28.3971C22.8214 27.8178 22.5912 27.2622 22.1816 26.8525C21.7719 26.4429 21.2163 26.2128 20.637 26.2128C20.0576 26.2128 19.502 26.4429 19.0924 26.8525C18.6827 27.2622 18.4526 27.8178 18.4526 28.3971ZM19.5448 23.3002H21.7292C21.9294 23.3002 22.0932 23.1364 22.0932 22.9362V10.5579C22.0932 10.3577 21.9294 10.1938 21.7292 10.1938H19.5448C19.3445 10.1938 19.1807 10.3577 19.1807 10.5579V22.9362C19.1807 23.1364 19.3445 23.3002 19.5448 23.3002Z" fill="#BE272D"/>
</g>
</svg>
