<svg width="21" height="22" viewBox="0 0 21 22" fill="none" xmlns="http://www.w3.org/2000/svg">
<path id="usuario Vector" d="M20.1197 17.8612C19.6046 16.6409 18.857 15.5325 17.9186 14.5977C16.9831 13.6602 15.8749 12.9127 14.6551 12.3966C14.6442 12.3911 14.6333 12.3884 14.6224 12.3829C16.3237 11.154 17.4298 9.15223 17.4298 6.89375C17.4298 3.15237 14.3984 0.121033 10.6571 0.121033C6.91567 0.121033 3.88434 3.15237 3.88434 6.89375C3.88434 9.15223 4.99036 11.154 6.69174 12.3857C6.68081 12.3911 6.66989 12.3938 6.65896 12.3993C5.43551 12.9155 4.33767 13.6555 3.3955 14.6004C2.45799 15.536 1.71052 16.6442 1.19437 17.8639C0.687292 19.058 0.413815 20.3383 0.38874 21.6353C0.388011 21.6645 0.393124 21.6935 0.403776 21.7206C0.414429 21.7478 0.430406 21.7725 0.450766 21.7934C0.471127 21.8142 0.495458 21.8308 0.522327 21.8421C0.549196 21.8534 0.578059 21.8593 0.607215 21.8593H2.24578C2.36594 21.8593 2.46152 21.7637 2.46425 21.6463C2.51887 19.538 3.36546 17.5635 4.86201 16.067C6.41045 14.5185 8.46684 13.6665 10.6571 13.6665C12.8473 13.6665 14.9037 14.5185 16.4521 16.067C17.9486 17.5635 18.7952 19.538 18.8499 21.6463C18.8526 21.7664 18.9482 21.8593 19.0683 21.8593H20.7069C20.736 21.8593 20.7649 21.8534 20.7918 21.8421C20.8186 21.8308 20.843 21.8142 20.8633 21.7934C20.8837 21.7725 20.8997 21.7478 20.9103 21.7206C20.921 21.6935 20.9261 21.6645 20.9254 21.6353C20.8981 20.3299 20.6277 19.0601 20.1197 17.8612ZM10.6571 11.591C9.40355 11.591 8.22379 11.1021 7.33624 10.2146C6.44868 9.32701 5.95985 8.14725 5.95985 6.89375C5.95985 5.64025 6.44868 4.46049 7.33624 3.57293C8.22379 2.68538 9.40355 2.19654 10.6571 2.19654C11.9106 2.19654 13.0903 2.68538 13.9779 3.57293C14.8654 4.46049 15.3543 5.64025 15.3543 6.89375C15.3543 8.14725 14.8654 9.32701 13.9779 10.2146C13.0903 11.1021 11.9106 11.591 10.6571 11.591Z" fill="#BE272D"/>
</svg>
