<svg width="33" height="27" viewBox="0 0 33 27" fill="none" xmlns="http://www.w3.org/2000/svg">
<path id="Vector" d="M19.457 13.1157L32.9024 0.543857C33.1278 0.334928 32.9383 0.0175171 32.59 0.0175171H28.5025C28.2618 0.0175171 28.0313 0.101892 27.8725 0.246535L16.7833 10.6166L5.694 0.246535C5.54034 0.101892 5.30985 0.0175171 5.06399 0.0175171H0.976582C0.628282 0.0175171 0.438765 0.334928 0.664136 0.543857L14.1095 13.1157L0.664136 25.6876C0.613651 25.7342 0.581262 25.7911 0.570815 25.8517C0.560368 25.9123 0.572301 25.974 0.605198 26.0294C0.638095 26.0848 0.690575 26.1316 0.756405 26.1644C0.822235 26.1971 0.898652 26.2143 0.976582 26.2139H5.06399C5.30472 26.2139 5.53522 26.1296 5.694 25.9849L16.7833 15.6148L27.8725 25.9849C28.0262 26.1296 28.2567 26.2139 28.5025 26.2139H32.59C32.9383 26.2139 33.1278 25.8965 32.9024 25.6876L19.457 13.1157Z" fill="black" fill-opacity="0.85"/>
</svg>
