<svg width="889" height="361" viewBox="0 0 889 361" fill="none" xmlns="http://www.w3.org/2000/svg">
<rect width="889" height="361" rx="10" fill="url(#paint0_linear_262_2008)"/>
<rect width="889" height="65.6873" rx="10" fill="#F1F1F1"/>
<rect width="127.781" height="65.6873" rx="10" fill="#BE272D"/>
<rect x="156.781" y="23.4263" width="40" height="18.8347" rx="9.41736" fill="black"/>
<rect x="225.781" y="23.4263" width="40" height="18.8347" rx="9.41736" fill="black"/>
<path d="M299.221 44.3251C297.941 44.3251 296.974 44.0651 296.321 43.5451C295.681 43.0251 295.361 42.2451 295.361 41.2051C295.361 40.1651 295.461 39.4118 295.661 38.9451C295.874 38.4651 296.314 37.9784 296.981 37.4851C297.647 36.9784 298.067 36.5918 298.241 36.3251C298.414 36.0584 298.501 35.7651 298.501 35.4451V34.8251H300.641C301.054 35.2784 301.261 35.8851 301.261 36.6451C301.261 37.1251 300.834 37.7051 299.981 38.3851C299.141 39.0651 298.621 39.5384 298.421 39.8051C298.234 40.0584 298.141 40.3718 298.141 40.7451C298.141 41.5318 298.707 41.9251 299.841 41.9251C300.641 41.9251 301.461 41.8451 302.301 41.6851L302.721 41.6051L302.861 43.6251C301.714 44.0918 300.501 44.3251 299.221 44.3251ZM301.081 30.4851V33.7051H298.201V30.4851H301.081ZM313.42 40.2651C312.007 40.5718 310.734 40.7251 309.6 40.7251C308.467 40.7251 307.56 40.5851 306.88 40.3051C306.2 40.0251 305.667 39.5784 305.28 38.9651C304.894 38.3518 304.627 37.6318 304.48 36.8051C304.334 35.9784 304.26 34.9384 304.26 33.6851C304.26 31.0584 304.627 29.2318 305.36 28.2051C306.107 27.1651 307.474 26.6451 309.46 26.6451C310.607 26.6451 311.934 26.8251 313.44 27.1851L313.36 29.3851C312.04 29.1851 310.94 29.0851 310.06 29.0851C309.194 29.0851 308.574 29.2051 308.2 29.4451C307.827 29.6718 307.547 30.1118 307.36 30.7651C307.187 31.4184 307.1 32.5318 307.1 34.1051C307.1 35.6784 307.28 36.7718 307.64 37.3851C308.014 37.9851 308.747 38.2851 309.84 38.2851C310.947 38.2851 312.12 38.1918 313.36 38.0051L313.42 40.2651ZM316.003 31.6251C316.71 30.7051 317.89 30.2451 319.543 30.2451C321.197 30.2451 322.377 30.7051 323.083 31.6251C323.79 32.5318 324.143 33.8118 324.143 35.4651C324.143 38.9718 322.61 40.7251 319.543 40.7251C316.477 40.7251 314.943 38.9718 314.943 35.4651C314.943 33.8118 315.297 32.5318 316.003 31.6251ZM318.063 37.7251C318.343 38.2051 318.837 38.4451 319.543 38.4451C320.25 38.4451 320.737 38.2051 321.003 37.7251C321.283 37.2451 321.423 36.4918 321.423 35.4651C321.423 34.4384 321.283 33.6918 321.003 33.2251C320.737 32.7584 320.25 32.5251 319.543 32.5251C318.837 32.5251 318.343 32.7584 318.063 33.2251C317.797 33.6918 317.663 34.4384 317.663 35.4651C317.663 36.4918 317.797 37.2451 318.063 37.7251ZM316.543 27.4651L321.583 25.4251L322.383 27.7251L317.143 29.2051L316.543 27.4651ZM328.988 40.4851H326.308V30.4851H328.968V31.0451C329.888 30.5118 330.675 30.2451 331.328 30.2451C332.408 30.2451 333.241 30.5584 333.828 31.1851C335.055 30.5584 336.175 30.2451 337.188 30.2451C338.508 30.2451 339.421 30.6318 339.928 31.4051C340.448 32.1651 340.708 33.3851 340.708 35.0651V40.4851H338.028V35.1451C338.028 34.2918 337.935 33.6651 337.748 33.2651C337.561 32.8518 337.188 32.6451 336.628 32.6451C336.201 32.6451 335.681 32.7384 335.068 32.9251L334.768 33.0251C334.821 34.0251 334.848 34.7851 334.848 35.3051V40.4851H332.168V35.3451C332.168 34.3584 332.081 33.6651 331.908 33.2651C331.735 32.8518 331.355 32.6451 330.768 32.6451C330.248 32.6451 329.735 32.7384 329.228 32.9251L328.988 33.0051V40.4851ZM343.825 31.6251C344.532 30.7051 345.712 30.2451 347.365 30.2451C349.019 30.2451 350.199 30.7051 350.905 31.6251C351.612 32.5318 351.965 33.8118 351.965 35.4651C351.965 38.9718 350.432 40.7251 347.365 40.7251C344.299 40.7251 342.765 38.9718 342.765 35.4651C342.765 33.8118 343.119 32.5318 343.825 31.6251ZM345.885 37.7251C346.165 38.2051 346.659 38.4451 347.365 38.4451C348.072 38.4451 348.559 38.2051 348.825 37.7251C349.105 37.2451 349.245 36.4918 349.245 35.4651C349.245 34.4384 349.105 33.6918 348.825 33.2251C348.559 32.7584 348.072 32.5251 347.365 32.5251C346.659 32.5251 346.165 32.7584 345.885 33.2251C345.619 33.6918 345.485 34.4384 345.485 35.4651C345.485 36.4918 345.619 37.2451 345.885 37.7251ZM357.784 30.4851H360.584L362.184 38.2051H362.744L364.424 30.4851H367.144L364.744 40.4851H360.184L357.784 30.4851ZM370.949 36.6251C370.962 37.2384 371.122 37.6851 371.429 37.9651C371.749 38.2318 372.202 38.3651 372.789 38.3651C374.029 38.3651 375.135 38.3251 376.109 38.2451L376.669 38.1851L376.709 40.1651C375.175 40.5384 373.789 40.7251 372.549 40.7251C371.042 40.7251 369.949 40.3251 369.269 39.5251C368.589 38.7251 368.249 37.4251 368.249 35.6251C368.249 32.0384 369.722 30.2451 372.669 30.2451C375.575 30.2451 377.029 31.7518 377.029 34.7651L376.829 36.6251H370.949ZM374.389 34.5851C374.389 33.7851 374.262 33.2318 374.009 32.9251C373.755 32.6051 373.309 32.4451 372.669 32.4451C372.042 32.4451 371.595 32.6118 371.329 32.9451C371.075 33.2651 370.942 33.8118 370.929 34.5851H374.389ZM381.824 40.4851H379.144V30.4851H381.804V31.0451C382.711 30.5118 383.544 30.2451 384.304 30.2451C385.637 30.2451 386.557 30.6384 387.064 31.4251C387.571 32.2118 387.824 33.4251 387.824 35.0651V40.4851H385.144V35.1451C385.144 34.2918 385.044 33.6651 384.844 33.2651C384.644 32.8518 384.244 32.6451 383.644 32.6451C383.097 32.6451 382.571 32.7384 382.064 32.9251L381.824 33.0051V40.4851ZM398.899 26.4851V40.4851H396.239V40.0651C395.305 40.5051 394.499 40.7251 393.819 40.7251C392.365 40.7251 391.352 40.3051 390.779 39.4651C390.205 38.6251 389.919 37.2984 389.919 35.4851C389.919 33.6584 390.259 32.3318 390.939 31.5051C391.632 30.6651 392.672 30.2451 394.059 30.2451C394.485 30.2451 395.079 30.3118 395.839 30.4451L396.219 30.5251V26.4851H398.899ZM395.939 38.0851L396.219 38.0251V32.7651C395.485 32.6318 394.832 32.5651 394.259 32.5651C393.179 32.5651 392.639 33.5251 392.639 35.4451C392.639 36.4851 392.759 37.2251 392.999 37.6651C393.239 38.1051 393.632 38.3251 394.179 38.3251C394.739 38.3251 395.325 38.2451 395.939 38.0851ZM403.775 36.6251C403.789 37.2384 403.949 37.6851 404.255 37.9651C404.575 38.2318 405.029 38.3651 405.615 38.3651C406.855 38.3651 407.962 38.3251 408.935 38.2451L409.495 38.1851L409.535 40.1651C408.002 40.5384 406.615 40.7251 405.375 40.7251C403.869 40.7251 402.775 40.3251 402.095 39.5251C401.415 38.7251 401.075 37.4251 401.075 35.6251C401.075 32.0384 402.549 30.2451 405.495 30.2451C408.402 30.2451 409.855 31.7518 409.855 34.7651L409.655 36.6251H403.775ZM407.215 34.5851C407.215 33.7851 407.089 33.2318 406.835 32.9251C406.582 32.6051 406.135 32.4451 405.495 32.4451C404.869 32.4451 404.422 32.6118 404.155 32.9451C403.902 33.2651 403.769 33.8118 403.755 34.5851H407.215ZM411.971 40.4851V30.4851H414.631V31.5451C415.751 30.8784 416.817 30.4451 417.831 30.2451V32.9451C416.751 33.1718 415.824 33.4051 415.051 33.6451L414.651 33.7851V40.4851H411.971ZM422.612 26.6451C423.892 26.6451 424.852 26.9051 425.492 27.4251C426.145 27.9451 426.472 28.7251 426.472 29.7651C426.472 30.8051 426.365 31.5651 426.152 32.0451C425.952 32.5118 425.519 32.9984 424.852 33.5051C424.185 33.9984 423.765 34.3784 423.592 34.6451C423.419 34.9118 423.332 35.2051 423.332 35.5251V36.1451H421.192C420.779 35.6918 420.572 35.0851 420.572 34.3251C420.572 33.8451 420.992 33.2651 421.832 32.5851C422.685 31.9051 423.205 31.4384 423.392 31.1851C423.592 30.9184 423.692 30.5984 423.692 30.2251C423.692 29.4384 423.125 29.0451 421.992 29.0451C421.192 29.0451 420.372 29.1251 419.532 29.2851L419.112 29.3651L418.972 27.3451C420.119 26.8784 421.332 26.6451 422.612 26.6451ZM420.752 40.4851V37.2651H423.632V40.4851H420.752Z" fill="black"/>
<path d="M294.781 42.6851H427.112V43.2851H294.781V42.6851Z" fill="black"/>
<rect x="470.299" y="23.4263" width="40" height="18.8347" rx="9.41736" fill="black"/>
<rect x="539.299" y="23.4263" width="40" height="18.8347" rx="9.41736" fill="black"/>
<rect x="608.799" y="23.9263" width="149.048" height="17.8347" rx="8.91736" fill="#F1F1F1" stroke="#BE272D"/>
<rect x="787.347" y="23.4263" width="49.4307" height="18.8347" rx="9.41736" fill="black"/>
<rect x="189.5" y="65.6873" width="510" height="295.132" rx="10" fill="#F1F1F1"/>
<rect x="339.5" y="85.6873" width="210" height="17.7731" rx="8.88654" fill="#BE272D"/>
<rect x="339.5" y="119.46" width="210" height="34.3594" rx="10" fill="black"/>
<rect x="229.5" y="173.82" width="86.5" height="27.6667" rx="10" fill="#D9D9D9"/>
<rect x="229.5" y="217.487" width="86.5" height="27.6667" rx="10" fill="#BE272D"/>
<rect x="229.5" y="261.153" width="86.5" height="27.6667" rx="10" fill="black"/>
<rect x="344" y="173.82" width="86.5" height="27.6667" rx="10" fill="#D9D9D9"/>
<rect x="344" y="217.487" width="86.5" height="27.6667" rx="10" fill="#BE272D"/>
<rect x="344" y="261.153" width="86.5" height="27.6667" rx="10" fill="black"/>
<rect x="458.5" y="173.82" width="86.5" height="27.6667" rx="10" fill="#D9D9D9"/>
<rect x="458.5" y="217.487" width="86.5" height="27.6667" rx="10" fill="#BE272D"/>
<rect x="458.5" y="261.153" width="86.5" height="27.6667" rx="10" fill="black"/>
<rect x="573" y="173.82" width="86.5" height="27.6667" rx="10" fill="#D9D9D9"/>
<rect x="573" y="217.487" width="86.5" height="27.6667" rx="10" fill="#BE272D"/>
<rect x="573" y="261.153" width="86.5" height="27.6667" rx="10" fill="black"/>
<rect x="363.5" y="308.82" width="162" height="32" rx="10" fill="#BE272D"/>
<path d="M415.222 330.32V319.36H422.134V320.912H416.998V324.016H421.174V325.552H416.998V328.752H422.134V330.32H415.222ZM425.761 330.32H424.017V322.32H425.745V322.816C426.503 322.368 427.196 322.144 427.825 322.144C428.753 322.144 429.431 322.405 429.857 322.928C430.828 322.405 431.793 322.144 432.753 322.144C433.713 322.144 434.391 322.442 434.785 323.04C435.18 323.626 435.377 324.624 435.377 326.032V330.32H433.649V326.08C433.649 325.216 433.559 324.602 433.377 324.24C433.207 323.877 432.844 323.696 432.289 323.696C431.809 323.696 431.292 323.802 430.737 324.016L430.465 324.128C430.551 324.341 430.593 325.024 430.593 326.176V330.32H428.865V326.208C428.865 325.258 428.78 324.602 428.609 324.24C428.439 323.877 428.065 323.696 427.489 323.696C426.956 323.696 426.46 323.802 426.001 324.016L425.761 324.112V330.32ZM437.584 333.76V322.32H439.312V322.816C440.048 322.368 440.736 322.144 441.376 322.144C442.432 322.144 443.205 322.469 443.696 323.12C444.186 323.76 444.432 324.842 444.432 326.368C444.432 327.882 444.149 328.949 443.584 329.568C443.029 330.186 442.117 330.496 440.848 330.496C440.41 330.496 439.904 330.448 439.328 330.352V333.76H437.584ZM441.072 323.696C440.57 323.696 440.069 323.808 439.568 324.032L439.328 324.144V328.864C439.754 328.949 440.224 328.992 440.736 328.992C441.461 328.992 441.962 328.784 442.24 328.368C442.517 327.952 442.656 327.242 442.656 326.24C442.656 324.544 442.128 323.696 441.072 323.696ZM452.033 328.88L452.481 328.832L452.513 330.128C451.297 330.373 450.22 330.496 449.281 330.496C448.097 330.496 447.244 330.17 446.721 329.52C446.209 328.869 445.953 327.829 445.953 326.4C445.953 323.562 447.111 322.144 449.425 322.144C451.665 322.144 452.785 323.365 452.785 325.808L452.673 327.056H447.713C447.724 327.717 447.868 328.202 448.145 328.512C448.423 328.821 448.94 328.976 449.697 328.976C450.455 328.976 451.233 328.944 452.033 328.88ZM451.073 325.712C451.073 324.922 450.945 324.373 450.689 324.064C450.444 323.744 450.023 323.584 449.425 323.584C448.828 323.584 448.391 323.749 448.113 324.08C447.847 324.41 447.708 324.954 447.697 325.712H451.073ZM454.222 323.872V322.32H460.158V323.872L456.318 328.768H460.158V330.32H454.222V328.768L458.078 323.872H454.222ZM467.968 324.784V328.432C467.979 328.666 468.037 328.842 468.144 328.96C468.261 329.066 468.437 329.136 468.672 329.168L468.624 330.496C467.707 330.496 466.997 330.298 466.496 329.904C465.643 330.298 464.784 330.496 463.92 330.496C462.331 330.496 461.536 329.648 461.536 327.952C461.536 327.141 461.749 326.554 462.176 326.192C462.613 325.829 463.28 325.61 464.176 325.536L466.24 325.36V324.784C466.24 324.357 466.144 324.058 465.952 323.888C465.771 323.717 465.499 323.632 465.136 323.632C464.453 323.632 463.6 323.674 462.576 323.76L462.064 323.792L462 322.56C463.163 322.282 464.229 322.144 465.2 322.144C466.181 322.144 466.885 322.357 467.312 322.784C467.749 323.2 467.968 323.866 467.968 324.784ZM464.384 326.768C463.648 326.832 463.28 327.232 463.28 327.968C463.28 328.704 463.605 329.072 464.256 329.072C464.789 329.072 465.355 328.986 465.952 328.816L466.24 328.72V326.592L464.384 326.768ZM470.317 330.32V322.32H472.045V323.28C472.952 322.693 473.859 322.314 474.765 322.144V323.888C473.848 324.069 473.064 324.304 472.413 324.592L472.061 324.736V330.32H470.317Z" fill="white"/>
<defs>
<linearGradient id="paint0_linear_262_2008" x1="882.508" y1="157.543" x2="-13.1553" y2="154.709" gradientUnits="userSpaceOnUse">
<stop stop-color="#BE272D"/>
<stop offset="0.744792" stop-color="#C3393F" stop-opacity="0.916667"/>
<stop offset="1" stop-color="white" stop-opacity="0"/>
</linearGradient>
</defs>
</svg>
