<svg width="33" height="25" viewBox="0 0 33 25" fill="none" xmlns="http://www.w3.org/2000/svg">
<g id="Vector">
<path d="M21.6002 19.9734H27.4009C27.5556 19.9734 27.6822 19.8468 27.6822 19.6921V17.1609C27.6822 17.0062 27.5556 16.8796 27.4009 16.8796H21.6002C21.4455 16.8796 21.3189 17.0062 21.3189 17.1609V19.6921C21.3189 19.8468 21.4455 19.9734 21.6002 19.9734Z" fill="black"/>
<path d="M31.3384 0.00463867H2.08844C1.46617 0.00463867 0.96344 0.507373 0.96344 1.12964V23.6296C0.96344 24.2519 1.46617 24.7546 2.08844 24.7546H31.3384C31.9607 24.7546 32.4634 24.2519 32.4634 23.6296V1.12964C32.4634 0.507373 31.9607 0.00463867 31.3384 0.00463867ZM29.9322 22.2234H3.49469V9.84839H29.9322V22.2234ZM29.9322 6.75464H3.49469V2.53589H29.9322V6.75464Z" fill="black"/>
</g>
</svg>
