<svg width="28" height="26" viewBox="0 0 28 26" fill="none" xmlns="http://www.w3.org/2000/svg">
<path id="Vector" d="M26.697 5.60491V1.65494C26.697 1.10915 26.2191 0.668213 25.6276 0.668213H3.03551C2.44398 0.668213 1.96607 1.10915 1.96607 1.65494V5.60491C1.40795 5.63574 0.963461 6.06435 0.963461 6.58855V10.6495C0.96132 11.3959 1.12511 12.1347 1.44471 12.8203C1.58842 13.1348 1.76555 13.4309 1.96607 13.7114V24.3496C1.96607 24.8922 2.44398 25.3363 3.03551 25.3363H25.6276C26.2191 25.3363 26.697 24.8953 26.697 24.3496V13.7114C26.9007 13.4301 27.0753 13.1318 27.2184 12.8203C27.5359 12.1327 27.6996 11.4019 27.6996 10.6495V6.58855C27.6996 6.06435 27.2551 5.63574 26.697 5.60491ZM4.37232 2.88834H24.2908V5.60182H4.37232V2.88834ZM16.4704 23.1192H12.1927V19.9093H16.4704V23.1192ZM24.2908 23.1192H18.6093V18.9226C18.6093 18.3768 18.1314 17.9359 17.5399 17.9359H11.1232C10.5317 17.9359 10.0538 18.3768 10.0538 18.9226V23.1192H4.37232V15.651C4.46924 15.6941 4.5695 15.7373 4.6731 15.7743C5.41838 16.0642 6.21043 16.2091 7.02589 16.2091C7.84134 16.2091 8.63006 16.0642 9.37867 15.7743C9.83987 15.5955 10.2743 15.3673 10.672 15.0929C10.6787 15.0898 10.6854 15.0898 10.6921 15.0929C11.091 15.3685 11.5255 15.5974 11.9854 15.7743C12.7307 16.0642 13.5228 16.2091 14.3382 16.2091C15.1537 16.2091 15.9424 16.0642 16.691 15.7743C17.1522 15.5955 17.5867 15.3673 17.9844 15.0929C17.9911 15.0898 17.9977 15.0898 18.0044 15.0929C18.4034 15.3685 18.8378 15.5974 19.2978 15.7743C20.0431 16.0642 20.8351 16.2091 21.6506 16.2091C22.466 16.2091 23.2547 16.0642 24.0034 15.7743C24.1036 15.7342 24.2039 15.6941 24.3041 15.651V23.1192H24.2908ZM25.2934 10.6495C25.2934 12.4935 23.6558 13.989 21.6405 13.989C20.277 13.989 19.0872 13.3075 18.4589 12.2961C18.362 12.1419 18.1882 12.0464 17.9944 12.0464H17.9743C17.7839 12.0464 17.6067 12.1419 17.5098 12.2961C17.1892 12.812 16.7262 13.2404 16.168 13.5378C15.6097 13.8351 14.9761 13.9908 14.3315 13.989C12.9713 13.989 11.7849 13.3106 11.1566 12.3023C11.0564 12.145 10.8759 12.0464 10.6787 12.0464C10.4815 12.0464 10.2977 12.145 10.2008 12.3023C9.8783 12.8162 9.41475 13.2427 8.8568 13.5388C8.29885 13.8349 7.6662 13.9902 7.02255 13.989C5.00731 13.989 3.36972 12.4935 3.36972 10.6495V7.83737C3.36972 7.82812 3.3764 7.82195 3.38643 7.82195H25.2767C25.2867 7.82195 25.2934 7.82812 25.2934 7.83737V10.6495Z" fill="black"/>
</svg>
