<svg width="15" height="11" viewBox="0 0 15 11" fill="none" xmlns="http://www.w3.org/2000/svg">
<path id="Vector" d="M14.2327 9.56739L7.40168 0.126736C7.37341 0.0875086 7.33623 0.0555609 7.29319 0.033526C7.25015 0.011491 7.2025 8.45268e-08 7.15415 8.51034e-08C7.1058 8.568e-08 7.05814 0.011491 7.0151 0.033526C6.97207 0.0555609 6.93488 0.0875086 6.90662 0.126736L0.0755721 9.56739C-0.070259 9.77079 0.0755721 10.0548 0.32502 10.0548L2.12489 10.0548C2.51633 10.0548 2.88858 9.86673 3.11884 9.5482L7.15223 3.96824L11.1895 9.5482C11.4197 9.86673 11.7881 10.0548 12.1834 10.0548L13.9833 10.0548C14.2327 10.0548 14.3786 9.77079 14.2327 9.56739Z" fill="#BE272D"/>
</svg>
