<svg width="15" height="11" viewBox="0 0 15 11" fill="none" xmlns="http://www.w3.org/2000/svg">
<path id="Vector" d="M0.0756293 1.43261L6.90667 10.8733C6.93494 10.9125 6.97212 10.9444 7.01516 10.9665C7.0582 10.9885 7.10585 11 7.1542 11C7.20255 11 7.25021 10.9885 7.29325 10.9665C7.33628 10.9444 7.37347 10.9125 7.40173 10.8733L14.2328 1.43261C14.3786 1.22921 14.2328 0.945227 13.9833 0.945227L12.1835 0.945227C11.792 0.945227 11.4198 1.13327 11.1895 1.4518L7.15612 7.03176L3.1189 1.4518C2.88864 1.13327 2.52022 0.945227 2.12494 0.945227L0.325078 0.945227C0.0756293 0.945227 -0.070202 1.22921 0.0756293 1.43261Z" fill="#BE272D"/>
</svg>
