<svg width="11" height="14" viewBox="0 0 11 14" fill="none" xmlns="http://www.w3.org/2000/svg">
<path id="Vector" d="M1.21942 13.6913L10.1436 7.23399C10.1807 7.20727 10.2109 7.17212 10.2317 7.13144C10.2526 7.09076 10.2634 7.04571 10.2634 7C10.2634 6.9543 10.2526 6.90925 10.2317 6.86857C10.2109 6.82788 10.1807 6.79273 10.1436 6.76601L1.21943 0.308664C1.02716 0.17081 0.758705 0.308663 0.758705 0.544465L0.758705 2.24587C0.758705 2.6159 0.936463 2.96779 1.23756 3.18545L6.51227 6.99819L1.23756 10.8146C0.936463 11.0322 0.758704 11.3805 0.758704 11.7541L0.758704 13.4555C0.758704 13.6913 1.02715 13.8292 1.21942 13.6913Z" fill="white"/>
</svg>
