<svg width="14" height="19" viewBox="0 0 14 19" fill="none" xmlns="http://www.w3.org/2000/svg">
<path id="Vector" d="M1.06711 18.5138L13.3626 9.61708C13.4137 9.58027 13.4553 9.53184 13.484 9.47579C13.5127 9.41974 13.5276 9.35767 13.5276 9.2947C13.5276 9.23173 13.5127 9.16966 13.484 9.11361C13.4553 9.05756 13.4137 9.00913 13.3626 8.97232L1.06712 0.075591C0.802213 -0.114339 0.43235 0.0755909 0.43235 0.400471L0.43235 2.74461C0.43235 3.25442 0.677258 3.73925 1.09211 4.03914L8.35943 9.2922L1.0921 14.5503C0.677257 14.8502 0.432349 15.33 0.432348 15.8448L0.432348 18.1889C0.432348 18.5138 0.802212 18.7037 1.06711 18.5138Z" fill="#BE272D"/>
</svg>
