<svg width="30" height="35" viewBox="0 0 30 35" fill="none" xmlns="http://www.w3.org/2000/svg">
<path id="Vector" d="M28.4388 9.39758H22.7149V8.72418C22.7149 4.44814 19.2469 0.980164 14.9709 0.980164C10.6949 0.980164 7.22688 4.44814 7.22688 8.72418V9.39758H1.50304C0.758095 9.39758 0.15625 9.99942 0.15625 10.7444V33.303C0.15625 34.048 0.758095 34.6498 1.50304 34.6498H28.4388C29.1837 34.6498 29.7855 34.048 29.7855 33.303V10.7444C29.7855 9.99942 29.1837 9.39758 28.4388 9.39758ZM10.2571 8.72418C10.2571 6.11899 12.3657 4.01043 14.9709 4.01043C17.5761 4.01043 19.6846 6.11899 19.6846 8.72418V9.39758H10.2571V8.72418ZM26.7553 31.6195H14.9709H3.18652V12.4278H7.22688V16.1315C7.22688 16.3167 7.37839 16.4682 7.56357 16.4682H9.92045C10.1056 16.4682 10.2571 16.3167 10.2571 16.1315V12.4278H19.6846V16.1315C19.6846 16.3167 19.8362 16.4682 20.0213 16.4682H22.3782C22.5634 16.4682 22.7149 16.3167 22.7149 16.1315V12.4278H26.7553V31.6195Z" fill="black"/>
</svg>
