<svg width="28" height="36" viewBox="0 0 28 36" fill="none" xmlns="http://www.w3.org/2000/svg">
<path id="Vector" d="M25.8705 28.1007H24.9063V14.44C24.9063 8.77079 20.7156 4.08597 15.2634 3.3065V1.74356C15.2634 0.85561 14.5442 0.136414 13.6563 0.136414C12.7683 0.136414 12.0491 0.85561 12.0491 1.74356V3.3065C6.59688 4.08597 2.40625 8.77079 2.40625 14.44V28.1007H1.44196C0.730804 28.1007 0.15625 28.6753 0.15625 29.3864V30.6721C0.15625 30.8489 0.300893 30.9936 0.477679 30.9936H9.15625C9.15625 33.4766 11.1732 35.4936 13.6563 35.4936C16.1393 35.4936 18.1563 33.4766 18.1563 30.9936H26.8348C27.0116 30.9936 27.1563 30.8489 27.1563 30.6721V29.3864C27.1563 28.6753 26.5817 28.1007 25.8705 28.1007ZM13.6563 32.9221C12.5915 32.9221 11.7277 32.0583 11.7277 30.9936H15.5848C15.5848 32.0583 14.721 32.9221 13.6563 32.9221ZM5.29911 28.1007V14.44C5.29911 12.2061 6.16696 10.1087 7.74598 8.52972C9.325 6.9507 11.4223 6.08284 13.6563 6.08284C15.8902 6.08284 17.9875 6.9507 19.5665 8.52972C21.1455 10.1087 22.0134 12.2061 22.0134 14.44V28.1007H5.29911Z" fill="black"/>
</svg>
