<svg width="28" height="33" viewBox="0 0 28 33" fill="none" xmlns="http://www.w3.org/2000/svg">
<path id="Vector" d="M26.803 0.74353H1.016C0.821711 0.74353 0.66275 0.924334 0.66275 1.14532V3.95782C0.66275 4.1788 0.821711 4.3596 1.016 4.3596H26.803C26.9973 4.3596 27.1563 4.1788 27.1563 3.95782V1.14532C27.1563 0.924334 26.9973 0.74353 26.803 0.74353ZM26.803 15.0069H1.016C0.821711 15.0069 0.66275 15.1877 0.66275 15.4087V18.2212C0.66275 18.4422 0.821711 18.623 1.016 18.623H26.803C26.9973 18.623 27.1563 18.4422 27.1563 18.2212V15.4087C27.1563 15.1877 26.9973 15.0069 26.803 15.0069ZM26.803 29.2703H1.016C0.821711 29.2703 0.66275 29.4511 0.66275 29.6721V32.4846C0.66275 32.7056 0.821711 32.8864 1.016 32.8864H26.803C26.9973 32.8864 27.1563 32.7056 27.1563 32.4846V29.6721C27.1563 29.4511 26.9973 29.2703 26.803 29.2703Z" fill="black"/>
</svg>
