<svg width="36" height="36" viewBox="0 0 36 36" fill="none" xmlns="http://www.w3.org/2000/svg">
<g id="LeftCircle">
<g id="Vector">
<path d="M21.2082 11.5144L12.5598 17.7722C12.5238 17.7981 12.4946 17.8322 12.4744 17.8716C12.4542 17.911 12.4437 17.9547 12.4437 17.999C12.4437 18.0433 12.4542 18.0869 12.4744 18.1263C12.4946 18.1658 12.5238 18.1998 12.5598 18.2257L21.2082 24.4835C21.3945 24.6171 21.6547 24.4835 21.6547 24.255V22.6062C21.6547 22.2476 21.4824 21.9066 21.1906 21.6956L16.0789 18.0007L21.1906 14.3023C21.4824 14.0913 21.6547 13.7538 21.6547 13.3917V11.7429C21.6547 11.5144 21.3945 11.3808 21.2082 11.5144Z" fill="#BE272D"/>
<path d="M18 2.25C9.30234 2.25 2.25 9.30234 2.25 18C2.25 26.6977 9.30234 33.75 18 33.75C26.6977 33.75 33.75 26.6977 33.75 18C33.75 9.30234 26.6977 2.25 18 2.25ZM18 31.0781C10.7789 31.0781 4.92188 25.2211 4.92188 18C4.92188 10.7789 10.7789 4.92188 18 4.92188C25.2211 4.92188 31.0781 10.7789 31.0781 18C31.0781 25.2211 25.2211 31.0781 18 31.0781Z" fill="#BE272D"/>
</g>
</g>
</svg>
