<svg width="13" height="13" viewBox="0 0 13 13" fill="none" xmlns="http://www.w3.org/2000/svg">
<g id="Left" clip-path="url(#clip0_861_320)">
<path id="Vector" d="M9.80984 3.0103V1.97504C9.80984 1.8853 9.70671 1.83575 9.63707 1.89066L3.59957 6.60629C3.54827 6.64618 3.50676 6.69726 3.47821 6.75563C3.44966 6.81401 3.43481 6.87813 3.43481 6.94312C3.43481 7.0081 3.44966 7.07222 3.47821 7.1306C3.50676 7.18897 3.54827 7.24005 3.59957 7.27995L9.63707 11.9956C9.70805 12.0505 9.80984 12.0009 9.80984 11.9112V10.8759C9.80984 10.8103 9.77903 10.7474 9.72814 10.7072L4.90671 6.94379L9.72814 3.17905C9.77903 3.13887 9.80984 3.07593 9.80984 3.0103Z" fill="#D9D9D9"/>
</g>
<defs>
<clipPath id="clip0_861_320">
<rect width="12" height="12" fill="white" transform="translate(0.970215 0.944092)"/>
</clipPath>
</defs>
</svg>
