<svg width="31" height="33" viewBox="0 0 31 33" fill="none" xmlns="http://www.w3.org/2000/svg">
<path id="Vector" d="M29.8147 26.9239C29.0568 25.1286 27.9569 23.4979 26.5763 22.1226C25.1999 20.7433 23.5695 19.6436 21.775 18.8842C21.7589 18.8761 21.7428 18.8721 21.7268 18.8641C24.2299 17.0561 25.8571 14.111 25.8571 10.7882C25.8571 5.28374 21.3973 0.823914 15.8928 0.823914C10.3884 0.823914 5.92854 5.28374 5.92854 10.7882C5.92854 14.111 7.55577 17.0561 10.0589 18.8681C10.0428 18.8761 10.0268 18.8802 10.0107 18.8882C8.21068 19.6476 6.59551 20.7364 5.20934 22.1266C3.83005 23.503 2.73034 25.1334 1.97095 26.9279C1.22492 28.6848 0.822576 30.5683 0.785684 32.4766C0.784612 32.5195 0.792133 32.5621 0.807806 32.6021C0.823478 32.642 0.846984 32.6784 0.876939 32.7091C0.906894 32.7398 0.942691 32.7642 0.982222 32.7808C1.02175 32.7975 1.06422 32.8061 1.10711 32.8061H3.51783C3.69461 32.8061 3.83524 32.6654 3.83926 32.4927C3.91961 29.3909 5.16515 26.486 7.36693 24.2842C9.64506 22.0061 12.6705 20.7525 15.8928 20.7525C19.1151 20.7525 22.1406 22.0061 24.4187 24.2842C26.6205 26.486 27.866 29.3909 27.9464 32.4927C27.9504 32.6695 28.091 32.8061 28.2678 32.8061H30.6785C30.7214 32.8061 30.7639 32.7975 30.8034 32.7808C30.843 32.7642 30.8788 32.7398 30.9087 32.7091C30.9387 32.6784 30.9622 32.642 30.9778 32.6021C30.9935 32.5621 31.001 32.5195 31 32.4766C30.9598 30.5561 30.562 28.6878 29.8147 26.9239ZM15.8928 17.6989C14.0486 17.6989 12.3129 16.9797 11.0071 15.6739C9.70131 14.3681 8.98211 12.6324 8.98211 10.7882C8.98211 8.944 9.70131 7.20829 11.0071 5.90249C12.3129 4.59668 14.0486 3.87749 15.8928 3.87749C17.737 3.87749 19.4727 4.59668 20.7785 5.90249C22.0843 7.20829 22.8035 8.944 22.8035 10.7882C22.8035 12.6324 22.0843 14.3681 20.7785 15.6739C19.4727 16.9797 17.737 17.6989 15.8928 17.6989Z" fill="black"/>
</svg>
