<svg width="13" height="13" viewBox="0 0 13 13" fill="none" xmlns="http://www.w3.org/2000/svg">
<g id="Right" clip-path="url(#clip0_861_333)">
<path id="Vector" d="M10.368 6.60691L4.33048 1.89128C4.31471 1.87886 4.29575 1.87114 4.27578 1.86901C4.25582 1.86688 4.23566 1.87042 4.21761 1.87924C4.19957 1.88805 4.18438 1.90177 4.17379 1.91882C4.16319 1.93588 4.15762 1.95558 4.15772 1.97566V3.01092C4.15772 3.07655 4.18852 3.13949 4.23941 3.17967L9.06084 6.94441L4.23941 10.7091C4.18718 10.7493 4.15772 10.8123 4.15772 10.8779V11.9132C4.15772 12.0029 4.26084 12.0524 4.33048 11.9975L10.368 7.28191C10.4193 7.24188 10.4608 7.19068 10.4894 7.13219C10.5179 7.07371 10.5328 7.00949 10.5328 6.94441C10.5328 6.87933 10.5179 6.8151 10.4894 6.75662C10.4608 6.69814 10.4193 6.64693 10.368 6.60691Z" fill="#D9D9D9"/>
</g>
<defs>
<clipPath id="clip0_861_333">
<rect width="12" height="12" fill="white" transform="translate(0.970215 0.944092)"/>
</clipPath>
</defs>
</svg>
