<svg width="11" height="8" viewBox="0 0 11 8" fill="none" xmlns="http://www.w3.org/2000/svg">
<path d="M5.83719 6.89777L10.5528 0.860269C10.5652 0.844493 10.573 0.825533 10.5751 0.805568C10.5772 0.785603 10.5737 0.765441 10.5649 0.747399C10.556 0.729357 10.5423 0.714166 10.5253 0.703571C10.5082 0.692976 10.4885 0.687406 10.4684 0.687501L9.43317 0.687501C9.36754 0.687501 9.3046 0.718305 9.26442 0.769198L5.49969 5.59063L1.73495 0.769197C1.69478 0.716965 1.63183 0.687501 1.5662 0.687501L0.530936 0.687501C0.441204 0.687501 0.39165 0.790626 0.446561 0.860269L5.16219 6.89777C5.20221 6.94908 5.25342 6.9906 5.3119 7.01915C5.37038 7.0477 5.43461 7.06254 5.49969 7.06254C5.56477 7.06254 5.62899 7.0477 5.68747 7.01915C5.74596 6.9906 5.79716 6.94908 5.83719 6.89777Z" fill="#BE272D"/>
</svg>
